<svg xmlns="http://www.w3.org/2000/svg" xmlns:xlink="http://www.w3.org/1999/xlink" width="500" zoomAndPan="magnify" viewBox="0 0 375 374.999991" height="500" preserveAspectRatio="xMidYMid meet" version="1.0"><defs><g/><clipPath id="55ec4fdfec"><path d="M 11.207031 159 L 80 159 L 80 219.382812 L 11.207031 219.382812 Z M 11.207031 159 " clip-rule="nonzero"/></clipPath><clipPath id="64b613a456"><path d="M 79 127.882812 L 147.707031 127.882812 L 147.707031 189 L 79 189 Z M 79 127.882812 " clip-rule="nonzero"/></clipPath></defs><rect x="-37.5" width="450" fill="#ffffff" y="-37.499999" height="449.999989" fill-opacity="1"/><rect x="-37.5" width="450" fill="#0f1120" y="-37.499999" height="449.999989" fill-opacity="1"/><g clip-path="url(#55ec4fdfec)"><path fill="#35a2cc" d="M 57.132812 202.027344 L 57.132812 210.328125 L 19.539062 192.859375 L 19.539062 186.125 L 57.132812 168.660156 L 57.132812 176.960938 L 28.699219 189.414062 L 28.699219 189.570312 Z M 79.457031 159.433594 L 16.589844 159.433594 C 13.621094 159.433594 11.214844 161.839844 11.214844 164.808594 L 11.214844 214.175781 C 11.214844 217.144531 13.621094 219.550781 16.589844 219.550781 L 62.007812 219.550781 L 79.457031 159.433594 " fill-opacity="1" fill-rule="nonzero"/></g><g clip-path="url(#64b613a456)"><path fill="#3298c0" d="M 139.277344 161.570312 L 101.683594 178.800781 L 101.683594 170.496094 L 130.742188 158.046875 L 130.742188 157.890625 L 101.683594 145.433594 L 101.683594 137.132812 L 139.277344 154.363281 Z M 96.914062 127.910156 L 79.457031 188.027344 L 142.226562 188.027344 C 145.195312 188.027344 147.601562 185.621094 147.601562 182.648438 L 147.601562 133.28125 C 147.601562 130.316406 145.195312 127.910156 142.226562 127.910156 L 96.914062 127.910156 " fill-opacity="1" fill-rule="nonzero"/></g><g fill="#ffffff" fill-opacity="1"><g transform="translate(77.412347, 212.250015)"><g><path d="M 18.0625 -18 L 11.125 -2.3125 L 4.234375 -18 L 2.1875 -18 L 2.1875 0 L 4.109375 0 L 4.109375 -14.21875 L 10.3125 0 L 11.90625 0 L 18.1875 -14.15625 L 18.1875 0 L 20.0625 0 L 20.0625 -18 Z M 18.0625 -18 "/></g></g></g><g fill="#ffffff" fill-opacity="1"><g transform="translate(107.70142, 212.250015)"><g><path d="M 8.84375 0.234375 C 12.78125 0.234375 15.625 -2.375 15.625 -5.90625 L 15.625 -18 L 13.703125 -18 L 13.703125 -6.203125 C 13.703125 -3.59375 11.640625 -1.6875 8.84375 -1.6875 C 6.0625 -1.6875 4.015625 -3.59375 4.015625 -6.203125 L 4.015625 -18 L 2.09375 -18 L 2.09375 -5.90625 C 2.09375 -2.375 4.953125 0.234375 8.84375 0.234375 Z M 8.84375 0.234375 "/></g></g></g><g fill="#ffffff" fill-opacity="1"><g transform="translate(133.462707, 212.250015)"><g><path d="M 9.484375 -8.21875 C 11.84375 -8.546875 13.65625 -10.53125 13.65625 -12.953125 C 13.65625 -15.78125 11.40625 -18 8.640625 -18 L 2.1875 -18 L 2.1875 0 L 4.109375 0 L 4.109375 -8.125 L 7.5 -8.125 L 12.59375 0 L 14.796875 0 Z M 4.109375 -9.953125 L 4.109375 -16.078125 L 8.515625 -16.078125 C 10.3125 -16.078125 11.734375 -14.8125 11.734375 -13.015625 C 11.734375 -11.1875 10.34375 -9.953125 8.515625 -9.953125 Z M 4.109375 -9.953125 "/></g></g></g><g fill="#ffffff" fill-opacity="1"><g transform="translate(156.555298, 212.250015)"><g><path d="M 13.046875 0 L 15.15625 0 L 8.640625 -18 L 6.515625 -18 L 0 0 L 2.09375 0 L 3.5625 -4.203125 L 11.578125 -4.203125 Z M 4.203125 -6.03125 L 7.59375 -15.71875 L 10.953125 -6.03125 Z M 4.203125 -6.03125 "/></g></g></g><g fill="#ffffff" fill-opacity="1"><g transform="translate(179.737856, 212.250015)"><g><path d="M 2.1875 0 L 7.109375 0 C 12.0625 0 16.109375 -4.015625 16.109375 -9 C 16.109375 -13.984375 12.0625 -18 7.109375 -18 L 2.1875 -18 Z M 4.078125 -1.921875 L 4.078125 -16.078125 L 7.078125 -16.078125 C 11.0625 -16.078125 14.1875 -13.046875 14.1875 -9 C 14.1875 -4.953125 11.0625 -1.921875 7.078125 -1.921875 Z M 4.078125 -1.921875 "/></g></g></g><g fill="#ffffff" fill-opacity="1"><g transform="translate(205.349229, 212.250015)"><g/></g></g><g fill="#ffffff" fill-opacity="1"><g transform="translate(220.615669, 212.250015)"><g><path d="M 13.046875 0 L 15.15625 0 L 8.640625 -18 L 6.515625 -18 L 0 0 L 2.09375 0 L 3.5625 -4.203125 L 11.578125 -4.203125 Z M 4.203125 -6.03125 L 7.59375 -15.71875 L 10.953125 -6.03125 Z M 4.203125 -6.03125 "/></g></g></g><g fill="#ffffff" fill-opacity="1"><g transform="translate(243.798227, 212.250015)"><g><path d="M 4.109375 -1.921875 L 4.109375 -18 L 2.1875 -18 L 2.1875 0 L 10.796875 0 L 10.796875 -1.921875 Z M 4.109375 -1.921875 "/></g></g></g><g fill="#ffffff" fill-opacity="1"><g transform="translate(262.902787, 212.250015)"><g><path d="M 2.34375 0 L 4.265625 0 L 4.265625 -18 L 2.34375 -18 Z M 2.34375 0 "/></g></g></g><g fill="#ffffff" fill-opacity="1"><g transform="translate(277.509533, 212.250015)"><g><path d="M 4.53125 -1.921875 L 14.375 -18 L 1.828125 -18 L 1.828125 -16.078125 L 10.984375 -16.078125 L 1.109375 0 L 14.734375 0 L 14.734375 -1.921875 Z M 4.53125 -1.921875 "/></g></g></g><g fill="#ffffff" fill-opacity="1"><g transform="translate(301.381746, 212.250015)"><g><path d="M 13.046875 0 L 15.15625 0 L 8.640625 -18 L 6.515625 -18 L 0 0 L 2.09375 0 L 3.5625 -4.203125 L 11.578125 -4.203125 Z M 4.203125 -6.03125 L 7.59375 -15.71875 L 10.953125 -6.03125 Z M 4.203125 -6.03125 "/></g></g></g><g fill="#ffffff" fill-opacity="1"><g transform="translate(324.564293, 212.250015)"><g><path d="M 2.1875 0 L 7.109375 0 C 12.0625 0 16.109375 -4.015625 16.109375 -9 C 16.109375 -13.984375 12.0625 -18 7.109375 -18 L 2.1875 -18 Z M 4.078125 -1.921875 L 4.078125 -16.078125 L 7.078125 -16.078125 C 11.0625 -16.078125 14.1875 -13.046875 14.1875 -9 C 14.1875 -4.953125 11.0625 -1.921875 7.078125 -1.921875 Z M 4.078125 -1.921875 "/></g></g></g><g fill="#ffffff" fill-opacity="1"><g transform="translate(350.175666, 212.250015)"><g><path d="M 13.046875 0 L 15.15625 0 L 8.640625 -18 L 6.515625 -18 L 0 0 L 2.09375 0 L 3.5625 -4.203125 L 11.578125 -4.203125 Z M 4.203125 -6.03125 L 7.59375 -15.71875 L 10.953125 -6.03125 Z M 4.203125 -6.03125 "/></g></g></g></svg>